<?xml version="1.0" standalone="no"?>
<!DOCTYPE svg PUBLIC "-//W3C//DTD SVG 20010904//EN"
 "http://www.w3.org/TR/2001/REC-SVG-20010904/DTD/svg10.dtd">
<svg version="1.0" xmlns="http://www.w3.org/2000/svg"
 width="640.000000pt" height="640.000000pt" viewBox="0 0 640.000000 640.000000"
 preserveAspectRatio="xMidYMid meet">
<metadata>
Created by potrace 1.11, written by Peter Selinger 2001-2013
</metadata>
<g transform="translate(0.000000,640.000000) scale(0.100000,-0.100000)"
fill="#000000" stroke="none">
<path d="M1299 6396 c-2 -2 -35 -7 -74 -11 -91 -9 -226 -32 -259 -45 -14 -5
-26 -8 -26 -5 0 9 -205 -67 -271 -101 -226 -114 -405 -297 -514 -526 -20 -42
-38 -83 -39 -90 -2 -7 -9 -26 -15 -43 -16 -37 -67 -245 -75 -300 -3 -22 -9
-71 -13 -110 -11 -93 -10 -3862 0 -3942 4 -34 12 -88 18 -120 6 -32 12 -71 15
-88 3 -16 15 -61 26 -100 12 -38 22 -74 24 -80 18 -81 130 -287 209 -385 45
-55 173 -173 209 -192 11 -6 23 -14 26 -17 10 -12 212 -121 225 -121 7 -1 38
-11 60 -21 23 -9 121 -37 156 -44 13 -3 35 -7 49 -10 40 -9 72 -14 112 -20 20
-3 52 -9 70 -13 18 -3 893 -7 1943 -8 1544 -2 1932 0 2027 11 64 7 125 16 135
19 10 3 36 8 58 11 22 4 49 9 60 12 11 4 25 8 32 9 29 5 149 48 161 57 6 5 12
6 12 3 0 -4 24 6 54 23 30 16 57 27 60 24 3 -4 6 -1 6 5 0 7 6 12 13 12 13 0
133 80 185 124 71 60 197 202 213 241 2 6 15 28 29 50 14 22 24 42 23 45 -1 3
5 12 12 20 7 8 14 18 15 22 0 4 9 28 20 52 55 130 96 300 118 494 9 89 9 3838
-1 3922 -4 36 -10 85 -13 110 -3 25 -14 82 -25 128 -79 340 -243 598 -481 755
-86 57 -228 132 -228 121 0 -4 -6 -2 -12 4 -13 10 -165 59 -210 67 -13 3 -43
9 -68 14 -46 11 -93 19 -165 29 -45 6 -3879 14 -3886 8z"/>
</g>
</svg>
